<svg width="168" height="20" fill="none" xmlns="http://www.w3.org/2000/svg"><g id="LOGO YO" fill="#fff"><path id="Vector" d="M158.309.635c2.465 0 4.285.13 5.462.392 1.176.262 2.091.747 2.745 1.457.746.84 1.204 2.156 1.372 3.949.075.765.112 2.082.112 3.949 0 2.334-.14 4.052-.42 5.154-.262 1.082-.747 1.941-1.457 2.576-.952.84-2.464 1.326-4.537 1.457-1.027.093-3.706.14-8.038.14-2.297 0-4.015-.075-5.154-.224-1.12-.15-2.054-.42-2.801-.813-.952-.522-1.615-1.344-1.988-2.464-.355-1.14-.532-2.95-.532-5.434 0-2.82.084-4.677.252-5.574.448-2.483 2.091-3.911 4.929-4.285 1.419-.187 4.771-.28 10.055-.28zm-2.661 3.53h-2.212c-.486 0-1.065.027-1.737.083-.672.037-1.148.065-1.428.084-.262.019-.598.103-1.009.252-.392.15-.644.27-.756.364-.112.075-.271.262-.476.56-.205.3-.317.551-.336.757a26.71 26.71 0 01-.14 1.036c-.056.504-.084.934-.084 1.288v3.557c0 .449.047.934.14 1.457.112.504.205.859.28 1.064.093.206.289.439.588.7.318.243.607.402.868.476.28.057.738.131 1.373.225.635.074 1.223.112 1.764.112h2.437c2.67 0 4.444-.038 5.322-.112.896-.075 1.596-.253 2.1-.533.523-.28.878-.793 1.065-1.54.186-.747.28-2.054.28-3.921V8.477c0-.354-.028-.775-.084-1.26a14.767 14.767 0 00-.14-1.008c-.019-.187-.131-.43-.337-.729-.186-.298-.336-.485-.448-.56-.112-.093-.373-.214-.784-.364-.392-.15-.719-.224-.98-.224a94.247 94.247 0 00-1.401-.084 20.331 20.331 0 00-1.708-.084h-2.157z"/><path id="Vector_2" d="M128.025 9.066l6.106-6.89c.448-.56.868-.934 1.26-1.12.392-.188.943-.262 1.653-.225h1.792c.654 0 .981.27.981.812 0 .15-.112.364-.337.645l-9.326 10.195v5.21c.037 1.213-.532 1.82-1.709 1.82h-.896c-1.176 0-1.746-.607-1.709-1.82v-5.21l-9.41-10.195c-.224-.243-.336-.467-.336-.673 0-.522.326-.784.98-.784h1.876c.71-.037 1.261.037 1.653.224.392.187.812.56 1.26 1.12l6.162 6.89z"/><path id="Vector_3" d="M95.224.635c2.464 0 4.285.13 5.461.392 1.177.262 2.091.747 2.745 1.457.747.84 1.204 2.156 1.372 3.949.075.765.112 2.082.112 3.949 0 2.334-.14 4.052-.42 5.154-.261 1.082-.747 1.941-1.456 2.576-.952.84-2.465 1.326-4.537 1.457-1.028.093-3.707.14-8.039.14-2.297 0-4.014-.075-5.153-.224-1.12-.15-2.054-.42-2.801-.813-.953-.522-1.615-1.344-1.989-2.464-.355-1.14-.532-2.95-.532-5.434 0-2.82.084-4.677.252-5.574.448-2.483 2.091-3.911 4.93-4.285 1.419-.187 4.77-.28 10.055-.28zm-2.661 3.53H90.35c-.485 0-1.064.027-1.736.083-.673.037-1.149.065-1.429.084-.261.019-.597.103-1.008.252-.392.15-.644.27-.756.364-.112.075-.271.262-.477.56-.205.3-.317.551-.336.757-.018.186-.065.532-.14 1.036-.056.504-.084.934-.084 1.288v3.557c0 .449.047.934.14 1.457.112.504.206.859.28 1.064.094.206.29.439.589.7.317.243.606.402.868.476.28.057.737.131 1.372.225.635.074 1.223.112 1.765.112h2.437c2.67 0 4.444-.038 5.321-.112.896-.075 1.597-.253 2.1-.533.524-.28.878-.793 1.065-1.54.187-.747.28-2.054.28-3.921V8.477c0-.354-.028-.775-.084-1.26a14.767 14.767 0 00-.14-1.008c-.019-.187-.131-.43-.336-.729-.187-.298-.336-.485-.448-.56-.112-.093-.374-.214-.784-.364-.392-.15-.72-.224-.98-.224a95.129 95.129 0 00-1.401-.084 20.342 20.342 0 00-1.709-.084h-2.156z"/><path id="Vector_4" d="M71.165 12.343H64.36c-.541 0-.97-.122-1.288-.364-.3-.262-.448-.617-.448-1.065 0-.43.149-.765.448-1.008.317-.262.747-.392 1.288-.392h9.187c.597-.038 1.055.093 1.372.392.318.28.467.7.448 1.26v.336c0 1.755-.056 3.016-.168 3.781a6.07 6.07 0 01-.7 2.101c-.523.971-1.494 1.634-2.913 1.989-.821.205-3.557.308-8.206.308-4.668 0-7.525-.206-8.57-.616-.897-.337-1.597-.794-2.101-1.373-.486-.597-.822-1.39-1.009-2.38-.205-.971-.308-2.624-.308-4.958 0-2.465.103-4.22.308-5.266.206-1.045.607-1.895 1.205-2.548.784-.84 1.904-1.354 3.36-1.54 1.382-.225 4.473-.337 9.271-.337 2.727 0 4.678.121 5.854.364 1.195.243 2.091.71 2.689 1.4a4.135 4.135 0 011.064 2.83c0 .485-.15.868-.448 1.148-.28.28-.672.42-1.176.42h-.84c-.934.019-1.522-.402-1.765-1.26-.15-.43-.43-.757-.84-.98-.411-.206-.934-.337-1.569-.393-.616-.075-1.755-.112-3.417-.112-3.417 0-5.61.056-6.582.168-.97.112-1.634.383-1.988.812-.523.58-.785 2.176-.785 4.79 0 1.848.066 3.165.197 3.949.149.766.42 1.316.812 1.652.41.374 1.036.617 1.876.729.86.093 2.558.14 5.098.14s4.173-.047 4.901-.14c.728-.094 1.289-.327 1.68-.7.598-.58.897-1.504.897-2.773 0-.131-.01-.252-.028-.364z"/><path id="Vector_5" d="M37.047.635c2.465 0 4.285.13 5.462.392 1.176.262 2.091.747 2.745 1.457.747.84 1.204 2.156 1.372 3.949.075.765.112 2.082.112 3.949 0 2.334-.14 4.052-.42 5.154-.261 1.082-.747 1.941-1.456 2.576-.953.84-2.465 1.326-4.538 1.457-1.027.093-3.706.14-8.038.14-2.297 0-4.015-.075-5.154-.224-1.12-.15-2.054-.42-2.8-.813-.953-.522-1.616-1.344-1.99-2.464-.354-1.14-.531-2.95-.531-5.434 0-2.82.084-4.677.252-5.574.448-2.483 2.091-3.911 4.93-4.285 1.418-.187 4.77-.28 10.054-.28zm-2.66 3.53h-2.213c-.486 0-1.065.027-1.737.083-.672.037-1.148.065-1.428.084-.262.019-.598.103-1.009.252-.392.15-.644.27-.756.364-.112.075-.27.262-.476.56-.205.3-.317.551-.336.757a26.71 26.71 0 01-.14 1.036c-.056.504-.084.934-.084 1.288v3.557c0 .449.047.934.14 1.457.112.504.205.859.28 1.064.093.206.29.439.588.7.318.243.607.402.868.476.28.057.738.131 1.373.225.635.074 1.223.112 1.764.112h2.437c2.67 0 4.444-.038 5.322-.112.896-.075 1.596-.253 2.1-.533.523-.28.878-.793 1.065-1.54.186-.747.28-2.054.28-3.921V8.477c0-.354-.028-.775-.084-1.26a14.573 14.573 0 00-.14-1.008c-.019-.187-.131-.43-.336-.729-.187-.298-.337-.485-.449-.56-.112-.093-.373-.214-.784-.364-.392-.15-.719-.224-.98-.224a93.858 93.858 0 00-1.4-.084 20.342 20.342 0 00-1.709-.084h-2.157z"/><path id="Vector_6" d="M4.705 16.012h11.82c1.176-.056 1.783.466 1.82 1.568v.364c-.037 1.102-.644 1.625-1.82 1.569H2.213c-.635.018-1.102-.122-1.4-.42-.3-.3-.44-.766-.42-1.4V2.651C.354 1.438.923.832 2.1.832h.896c1.176 0 1.746.606 1.708 1.82v13.36z"/></g></svg>