<svg width="198" height="23" fill="none" xmlns="http://www.w3.org/2000/svg"><g id="LOGO YO" fill="#000"><path id="Vector" d="M186.552 0c2.912 0 5.062.154 6.452.463 1.389.309 2.47.883 3.242 1.72.883.993 1.423 2.548 1.622 4.666.088.904.132 2.46.132 4.665 0 2.757-.165 4.787-.496 6.088-.309 1.28-.883 2.294-1.721 3.044-1.125.993-2.912 1.566-5.36 1.72-1.213.11-4.378.166-9.496.166-2.713 0-4.742-.088-6.088-.265-1.323-.176-2.426-.496-3.308-.96-1.125-.617-1.908-1.587-2.35-2.91-.419-1.346-.628-3.486-.628-6.42 0-3.33.099-5.525.298-6.584.529-2.934 2.47-4.621 5.823-5.062C176.35.11 180.31 0 186.552 0zm-3.143 4.169h-2.614c-.574 0-1.257.033-2.052.1-.794.043-1.356.076-1.687.098-.309.023-.706.122-1.191.298-.463.177-.761.32-.893.43-.133.089-.32.31-.563.662-.243.353-.375.65-.397.893-.022.221-.077.63-.165 1.225a13.92 13.92 0 00-.1 1.522v4.202c0 .529.056 1.102.166 1.72.132.596.242 1.015.331 1.257.11.243.342.519.694.828.375.286.717.474 1.026.562.331.066.871.154 1.621.265.75.088 1.445.132 2.085.132h2.878c3.155 0 5.25-.044 6.287-.132 1.059-.088 1.886-.298 2.481-.629.618-.33 1.037-.937 1.258-1.82.22-.882.331-2.426.331-4.632V9.264c0-.419-.034-.915-.1-1.489-.066-.573-.121-.97-.165-1.19-.022-.221-.155-.508-.397-.861-.221-.353-.397-.574-.53-.662-.132-.11-.441-.253-.926-.43-.463-.176-.849-.265-1.158-.265-.309-.022-.86-.055-1.654-.099a24.04 24.04 0 00-2.019-.1h-2.547z"/><path id="Vector_2" d="M150.777 9.96l7.213-8.14c.529-.662 1.026-1.103 1.489-1.324.463-.22 1.114-.308 1.952-.264h2.117c.772 0 1.158.32 1.158.96 0 .176-.132.43-.397.76l-11.017 12.044v6.154c.044 1.434-.629 2.15-2.019 2.15h-1.059c-1.389 0-2.062-.716-2.018-2.15v-6.154L137.079 1.952c-.265-.287-.397-.551-.397-.794 0-.618.386-.926 1.158-.926h2.217c.838-.044 1.489.044 1.952.264.463.22.959.662 1.489 1.324l7.279 8.14z"/><path id="Vector_3" d="M112.028 0c2.912 0 5.062.154 6.452.463 1.39.309 2.47.883 3.242 1.72.883.993 1.423 2.548 1.622 4.666.088.904.132 2.46.132 4.665 0 2.757-.165 4.787-.496 6.088-.309 1.28-.883 2.294-1.721 3.044-1.125.993-2.911 1.566-5.36 1.72-1.213.11-4.378.166-9.496.166-2.713 0-4.742-.088-6.088-.265-1.323-.176-2.426-.496-3.308-.96-1.125-.617-1.908-1.587-2.35-2.91-.419-1.346-.628-3.486-.628-6.42 0-3.33.1-5.525.298-6.584.529-2.934 2.47-4.621 5.823-5.062C101.826.11 105.786 0 112.028 0zm-3.143 4.169h-2.614c-.574 0-1.257.033-2.051.1-.795.043-1.357.076-1.688.098-.309.023-.706.122-1.191.298-.463.177-.761.32-.893.43-.133.089-.32.31-.563.662-.243.353-.375.65-.397.893-.022.221-.077.63-.165 1.225-.066.595-.1 1.103-.1 1.522v4.202c0 .529.056 1.102.166 1.72.132.596.243 1.015.33 1.257.111.243.343.519.696.828.375.286.716.474 1.025.562.331.066.872.154 1.621.265.75.088 1.445.132 2.085.132h2.878c3.155 0 5.25-.044 6.287-.132 1.059-.088 1.886-.298 2.481-.629.618-.33 1.037-.937 1.258-1.82.22-.882.331-2.426.331-4.632V9.264c0-.419-.033-.915-.1-1.489-.066-.573-.121-.97-.165-1.19-.022-.221-.154-.508-.397-.861-.221-.353-.397-.574-.529-.662-.133-.11-.442-.253-.927-.43-.463-.176-.849-.265-1.158-.265-.309-.022-.86-.055-1.654-.099a24.04 24.04 0 00-2.019-.1h-2.547z"/><path id="Vector_4" d="M83.607 13.83h-8.04c-.64 0-1.147-.143-1.522-.43-.353-.309-.53-.728-.53-1.257 0-.507.177-.905.53-1.191.375-.309.882-.463 1.522-.463H86.42c.706-.045 1.246.11 1.62.463.376.33.552.827.53 1.489v.397c0 2.073-.066 3.562-.198 4.466a7.167 7.167 0 01-.827 2.482c-.618 1.147-1.765 1.93-3.441 2.35-.971.242-4.202.363-9.695.363-5.514 0-8.89-.243-10.124-.728-1.06-.397-1.886-.937-2.482-1.621-.573-.706-.97-1.643-1.191-2.813-.243-1.146-.364-3.099-.364-5.856 0-2.911.121-4.985.364-6.22.243-1.235.717-2.239 1.423-3.011.926-.993 2.25-1.6 3.97-1.82C67.637.165 71.288.033 76.957.033c3.22 0 5.525.144 6.915.43 1.412.287 2.47.838 3.176 1.655.838.948 1.258 2.062 1.258 3.341 0 .574-.177 1.026-.53 1.357-.33.33-.794.496-1.39.496h-.992c-1.103.022-1.798-.474-2.085-1.489a2.05 2.05 0 00-.992-1.158c-.485-.242-1.103-.397-1.853-.463-.728-.088-2.073-.132-4.037-.132-4.036 0-6.628.066-7.775.198-1.147.133-1.93.452-2.35.96-.617.684-.926 2.57-.926 5.658 0 2.183.078 3.738.232 4.665.177.904.496 1.555.96 1.952.485.441 1.224.728 2.216.86 1.015.11 3.022.166 6.022.166 3 0 4.93-.055 5.79-.166.86-.11 1.522-.386 1.986-.827.705-.684 1.058-1.776 1.058-3.276 0-.154-.01-.297-.033-.43z"/><path id="Vector_5" d="M43.303 0c2.912 0 5.063.154 6.452.463 1.39.309 2.47.883 3.243 1.72.882.993 1.422 2.548 1.62 4.666.09.904.133 2.46.133 4.665 0 2.757-.165 4.787-.496 6.088-.309 1.28-.882 2.294-1.72 3.044-1.125.993-2.912 1.566-5.36 1.72-1.214.11-4.38.166-9.496.166-2.714 0-4.743-.088-6.088-.265-1.324-.176-2.427-.496-3.31-.96-1.124-.617-1.907-1.587-2.348-2.91-.42-1.346-.629-3.486-.629-6.42 0-3.33.1-5.525.298-6.584.53-2.934 2.47-4.621 5.823-5.062C33.102.11 37.061 0 43.303 0zM40.16 4.169h-2.614c-.573 0-1.257.033-2.051.1-.794.043-1.357.076-1.688.098-.308.023-.706.122-1.19.298-.464.177-.762.32-.894.43-.132.089-.32.31-.563.662-.242.353-.375.65-.397.893-.022.221-.077.63-.165 1.225-.066.595-.1 1.103-.1 1.522v4.202c0 .529.056 1.102.166 1.72.133.596.243 1.015.331 1.257.11.243.342.519.695.828.375.286.717.474 1.025.562.331.066.872.154 1.622.265.75.088 1.444.132 2.084.132H39.3c3.154 0 5.25-.044 6.286-.132 1.059-.088 1.886-.298 2.482-.629.617-.33 1.037-.937 1.257-1.82.22-.882.33-2.426.33-4.632V9.264c0-.419-.032-.915-.098-1.489a17.2 17.2 0 00-.166-1.19c-.022-.221-.154-.508-.397-.861-.22-.353-.397-.574-.53-.662-.132-.11-.44-.253-.926-.43-.463-.176-.849-.265-1.158-.265-.309-.022-.86-.055-1.654-.099-.772-.066-1.445-.1-2.018-.1H40.16z"/><path id="Vector_6" d="M5.097 18.165H19.06c1.39-.067 2.107.551 2.15 1.852v.43c-.044 1.302-.76 1.92-2.15 1.853H2.153c-.75.023-1.302-.143-1.655-.496S-.02 20.9.002 20.15V2.382C-.042.948.631.232 2.02.232h1.06c1.389 0 2.062.716 2.017 2.15v15.783z"/></g></svg>